<svg width="112" height="112" viewBox="0 0 112 112" fill="none" xmlns="http://www.w3.org/2000/svg">
<circle cx="6" cy="6" r="6" fill="#C9C9C9"/>
<circle cx="6" cy="31" r="6" fill="#C9C9C9"/>
<circle cx="6" cy="56" r="6" fill="#C9C9C9"/>
<circle cx="6" cy="81" r="6" fill="#C9C9C9"/>
<circle cx="6" cy="106" r="6" fill="#C9C9C9"/>
<circle cx="31" cy="6" r="6" fill="#C9C9C9"/>
<circle cx="31" cy="31" r="6" fill="#C9C9C9"/>
<circle cx="31" cy="56" r="6" fill="#C9C9C9"/>
<circle cx="31" cy="81" r="6" fill="#C9C9C9"/>
<circle cx="31" cy="106" r="6" fill="#C9C9C9"/>
<circle cx="56" cy="6" r="6" fill="#C9C9C9"/>
<circle cx="56" cy="31" r="6" fill="#C9C9C9"/>
<circle cx="56" cy="56" r="6" fill="#C9C9C9"/>
<circle cx="56" cy="81" r="6" fill="#C9C9C9"/>
<circle cx="56" cy="106" r="6" fill="#C9C9C9"/>
<circle cx="81" cy="6" r="6" fill="#C9C9C9"/>
<circle cx="81" cy="31" r="6" fill="#C9C9C9"/>
<circle cx="81" cy="56" r="6" fill="#C9C9C9"/>
<circle cx="81" cy="81" r="6" fill="#C9C9C9"/>
<circle cx="81" cy="106" r="6" fill="#C9C9C9"/>
<circle cx="106" cy="6" r="6" fill="#C9C9C9"/>
<circle cx="106" cy="31" r="6" fill="#C9C9C9"/>
<circle cx="106" cy="56" r="6" fill="#C9C9C9"/>
<circle cx="106" cy="81" r="6" fill="#C9C9C9"/>
<circle cx="106" cy="106" r="6" fill="#C9C9C9"/>
</svg>
