<svg width="28" height="30" viewBox="0 0 28 30" fill="none" xmlns="http://www.w3.org/2000/svg">
<path fill-rule="evenodd" clip-rule="evenodd" d="M1.32353 22.0588C2.05449 22.0588 2.64706 22.6514 2.64706 23.3824V26.9118C2.64706 27.1554 2.84458 27.3529 3.08824 27.3529H24.2647C24.5084 27.3529 24.7059 27.1554 24.7059 26.9118V23.3824C24.7059 22.6514 25.2984 22.0588 26.0294 22.0588C26.7604 22.0588 27.3529 22.6514 27.3529 23.3824V26.9118C27.3529 28.6173 25.9703 30 24.2647 30H3.08824C1.38265 30 0 28.6174 0 26.9118V23.3824C0 22.6514 0.592564 22.0588 1.32353 22.0588Z" fill="white"/>
<path d="M11.4493 0C10.5416 0 9.78435 0.693745 9.70508 1.59803C9.43395 4.69105 9.38613 7.79928 9.56184 10.8985C9.12599 10.9226 8.6903 10.9505 8.25481 10.9823L5.62628 11.1739C4.61281 11.2478 4.04627 12.3778 4.59341 13.2341C6.46759 16.1672 8.88253 18.7171 11.7095 20.7478L12.7626 21.5043C13.3087 21.8966 14.0444 21.8966 14.5906 21.5043L15.6436 20.7478C18.4706 18.7171 20.8855 16.1672 22.7597 13.2341C23.3069 12.3778 22.7403 11.2478 21.7269 11.1739L19.0983 10.9823C18.6628 10.9505 18.2271 10.9226 17.7913 10.8985C17.967 7.79928 17.9192 4.69105 17.648 1.59802C17.5688 0.693742 16.8116 0 15.9038 0H11.4493Z" fill="white"/>
</svg>
