<svg width="32" height="29" viewBox="0 0 32 29" fill="none" xmlns="http://www.w3.org/2000/svg">
<path d="M31.3156 24.9519C31.7404 25.3583 31.9865 25.9169 31.9995 26.5047C32.0126 27.0925 31.7916 27.6615 31.3852 28.0864L31.2438 28.2315C30.3981 29.1163 28.7269 28.8592 27.8432 28.0135L5.81348 6.91918L9.01714 3.56982L31.3156 24.9519Z" fill="#FBB042"/>
<path d="M10.3335 8.66113C9.50792 9.795 9.8389 10.7536 10.6265 11.5069L28.1096 28.2637C28.8962 29.0175 29.8685 29.3047 30.9654 28.4305L10.3335 8.66113Z" fill="#E8A042"/>
<path d="M5.10893 8.60273C5.52806 7.42188 12.9938 0.48932 14.4037 0.18421C15.8131 -0.120901 21.1209 -0.170521 21.4888 1.02194C21.7507 1.86601 21.3131 1.95681 21.1082 1.97423C20.8443 1.9964 16.7654 2.88903 16.0802 3.42218C15.3951 3.95534 14.4417 7.45989 14.6323 7.91703C14.8234 8.37416 14.5188 9.02134 14.4423 9.17389C14.3657 9.32645 11.2803 11.9547 11.0517 11.9547C10.8232 11.9547 8.88111 11.3076 8.49999 12.1838C8.11886 13.0601 4.6898 9.78358 5.10893 8.60273Z" fill="#627C7F"/>
<path d="M8.50714 17.1335C7.8209 17.8483 6.80211 17.9903 6.23412 17.4466L0.318771 11.7862C-0.250804 11.2419 -0.0111501 10.3567 0.674029 9.64036L2.53848 7.69198C3.22418 6.9746 4.19019 6.60087 4.75924 7.14405L10.6751 12.8055C11.2436 13.3487 11.0568 14.4683 10.3705 15.1867L8.50714 17.1335Z" fill="#7C9C9F"/>
</svg>
