<svg width="180" height="180" viewBox="0 0 180 180" fill="none" xmlns="http://www.w3.org/2000/svg">
<circle cx="90" cy="90" r="75" fill="#FCB040"/>
<circle cx="90" cy="90" r="89" stroke="black" stroke-width="2" stroke-dasharray="15 15"/>
<path d="M59.8403 76.8182V103H54.3943V76.8182H59.8403ZM72.679 103.384C70.6932 103.384 68.9759 102.962 67.527 102.118C66.0867 101.266 64.9745 100.081 64.1904 98.5639C63.4063 97.0384 63.0142 95.2699 63.0142 93.2585C63.0142 91.2301 63.4063 89.4574 64.1904 87.9403C64.9745 86.4148 66.0867 85.2301 67.527 84.3864C68.9759 83.5341 70.6932 83.108 72.679 83.108C74.6648 83.108 76.3779 83.5341 77.8182 84.3864C79.2671 85.2301 80.3835 86.4148 81.1676 87.9403C81.9517 89.4574 82.3438 91.2301 82.3438 93.2585C82.3438 95.2699 81.9517 97.0384 81.1676 98.5639C80.3835 100.081 79.2671 101.266 77.8182 102.118C76.3779 102.962 74.6648 103.384 72.679 103.384ZM72.7046 99.1648C73.608 99.1648 74.3622 98.9091 74.9674 98.3977C75.5725 97.8778 76.0284 97.1705 76.3353 96.2756C76.6506 95.3807 76.8083 94.3622 76.8083 93.2202C76.8083 92.0781 76.6506 91.0597 76.3353 90.1648C76.0284 89.2699 75.5725 88.5625 74.9674 88.0426C74.3622 87.5227 73.608 87.2628 72.7046 87.2628C71.7926 87.2628 71.0256 87.5227 70.4034 88.0426C69.7898 88.5625 69.3253 89.2699 69.01 90.1648C68.7032 91.0597 68.5497 92.0781 68.5497 93.2202C68.5497 94.3622 68.7032 95.3807 69.01 96.2756C69.3253 97.1705 69.7898 97.8778 70.4034 98.3977C71.0256 98.9091 71.7926 99.1648 72.7046 99.1648ZM94.3356 110.773C92.5714 110.773 91.0586 110.53 89.7972 110.044C88.5444 109.567 87.5472 108.915 86.8057 108.088C86.0643 107.261 85.5827 106.332 85.3611 105.301L90.3981 104.624C90.5515 105.016 90.7944 105.382 91.1268 105.723C91.4591 106.064 91.8981 106.337 92.4435 106.541C92.9975 106.754 93.6708 106.861 94.4634 106.861C95.6481 106.861 96.6239 106.571 97.391 105.991C98.1665 105.42 98.5543 104.462 98.5543 103.115V99.5227H98.3242C98.0856 100.068 97.7276 100.584 97.2503 101.07C96.7731 101.555 96.1594 101.952 95.4094 102.259C94.6594 102.565 93.7645 102.719 92.7248 102.719C91.2503 102.719 89.908 102.378 88.6978 101.696C87.4961 101.006 86.5373 99.9531 85.8214 98.5384C85.114 97.1151 84.7603 95.3168 84.7603 93.1435C84.7603 90.919 85.1225 89.0611 85.8469 87.5696C86.5714 86.0781 87.5344 84.9616 88.7361 84.2202C89.9464 83.4787 91.2716 83.108 92.712 83.108C93.8114 83.108 94.7319 83.2955 95.4733 83.6705C96.2148 84.0369 96.8114 84.4972 97.2631 85.0511C97.7233 85.5966 98.077 86.1335 98.3242 86.6619H98.5287V83.3636H103.936V103.192C103.936 104.862 103.527 106.26 102.709 107.385C101.891 108.51 100.757 109.354 99.3086 109.916C97.8682 110.487 96.2106 110.773 94.3356 110.773ZM94.4506 98.6278C95.3285 98.6278 96.0699 98.4105 96.675 97.9759C97.2887 97.5327 97.7574 96.902 98.0813 96.0838C98.4137 95.2571 98.5799 94.2685 98.5799 93.1179C98.5799 91.9673 98.4179 90.9702 98.0941 90.1264C97.7702 89.2741 97.3015 88.6136 96.6878 88.1449C96.0742 87.6761 95.3285 87.4418 94.4506 87.4418C93.5557 87.4418 92.8015 87.6847 92.1878 88.1705C91.5742 88.6477 91.1097 89.3125 90.7944 90.1648C90.479 91.017 90.3214 92.0014 90.3214 93.1179C90.3214 94.2514 90.479 95.2315 90.7944 96.0582C91.1182 96.8764 91.5827 97.5114 92.1878 97.9631C92.8015 98.4062 93.5557 98.6278 94.4506 98.6278ZM116.746 103.384C114.761 103.384 113.043 102.962 111.594 102.118C110.154 101.266 109.042 100.081 108.258 98.5639C107.474 97.0384 107.082 95.2699 107.082 93.2585C107.082 91.2301 107.474 89.4574 108.258 87.9403C109.042 86.4148 110.154 85.2301 111.594 84.3864C113.043 83.5341 114.761 83.108 116.746 83.108C118.732 83.108 120.445 83.5341 121.886 84.3864C123.334 85.2301 124.451 86.4148 125.235 87.9403C126.019 89.4574 126.411 91.2301 126.411 93.2585C126.411 95.2699 126.019 97.0384 125.235 98.5639C124.451 100.081 123.334 101.266 121.886 102.118C120.445 102.962 118.732 103.384 116.746 103.384ZM116.772 99.1648C117.675 99.1648 118.43 98.9091 119.035 98.3977C119.64 97.8778 120.096 97.1705 120.403 96.2756C120.718 95.3807 120.876 94.3622 120.876 93.2202C120.876 92.0781 120.718 91.0597 120.403 90.1648C120.096 89.2699 119.64 88.5625 119.035 88.0426C118.43 87.5227 117.675 87.2628 116.772 87.2628C115.86 87.2628 115.093 87.5227 114.471 88.0426C113.857 88.5625 113.393 89.2699 113.077 90.1648C112.771 91.0597 112.617 92.0781 112.617 93.2202C112.617 94.3622 112.771 95.3807 113.077 96.2756C113.393 97.1705 113.857 97.8778 114.471 98.3977C115.093 98.9091 115.86 99.1648 116.772 99.1648Z" fill="black"/>
</svg>
