<svg width="25" height="20" viewBox="0 0 25 20" fill="none" xmlns="http://www.w3.org/2000/svg">
<path d="M24.6099 2.36755C23.6884 2.77581 22.7109 3.04378 21.71 3.16257C22.7526 2.53771 23.5531 1.54822 23.93 0.369245C22.9389 0.95737 21.8546 1.37174 20.7239 1.59446C19.8028 0.61323 18.4907 0 17.0384 0C14.25 0 11.9893 2.26065 11.9893 5.04888C11.9893 5.44466 12.034 5.82996 12.12 6.19959C7.92383 5.98896 4.20349 3.97893 1.71318 0.924219C1.27866 1.66992 1.02968 2.53732 1.02968 3.4625C1.02968 5.21423 1.92111 6.75956 3.27581 7.66504C2.47402 7.63993 1.68987 7.42337 0.98882 7.03344C0.988532 7.05459 0.988532 7.07574 0.988532 7.09699C0.988532 9.54327 2.72892 11.584 5.0386 12.0478C4.2951 12.25 3.51521 12.2796 2.75852 12.1343C3.40098 14.1402 5.26566 15.5999 7.47498 15.6408C5.747 16.9949 3.56988 17.8021 1.20445 17.8021C0.796843 17.8021 0.395009 17.7782 0 17.7316C2.23441 19.1641 4.88834 20 7.73964 20C17.0267 20 22.1051 12.3064 22.1051 5.63443C22.1051 5.41544 22.1003 5.1977 22.0905 4.98121C23.079 4.26664 23.9321 3.38157 24.6099 2.36755Z" fill="#55ACEE"/>
</svg>
